<?xml version="1.0" encoding="UTF-8"?>
<!DOCTYPE svg PUBLIC "-//W3C//DTD SVG 1.1//EN" "http://www.w3.org/Graphics/SVG/1.1/DTD/svg11.dtd">
<svg version="1.1" xmlns="http://www.w3.org/2000/svg" xmlns:xlink="http://www.w3.org/1999/xlink" x="0" y="0" width="1200" height="800" viewBox="0, 0, 1200, 800">
  <defs>
    <linearGradient id="Gradient_1" gradientUnits="userSpaceOnUse" x1="671.453" y1="710.831" x2="228.641" y2="400.771">
      <stop offset="0" stop-color="#FFFFFF" stop-opacity="0"/>
      <stop offset="1" stop-color="#1F212E"/>
    </linearGradient>
  </defs>
  <g id="Layer_4">
    <g>
      <path d="M-24.431,-18.062 L1226.239,-18.062 L1226.239,826.088 L-24.431,826.088 L-24.431,-18.062 z" fill="#203050"/>
      <path d="M-24.431,-18.062 L1226.239,-18.062 L1226.239,826.088 L-24.431,826.088 L-24.431,-18.062 z" fill-opacity="0" stroke="#000000" stroke-width="1"/>
    </g>
  </g>
  <g id="Layer_2" opacity="0.163">
    <path d="M233.606,298.049 C229.987,193.718 311.629,106.209 415.958,102.59 C520.288,98.971 607.797,180.613 611.416,284.943 C615.034,389.272 533.393,476.781 429.064,480.4 C324.735,484.019 237.225,402.378 233.606,298.049 L233.606,298.049 z M445.413,281.065 L574.141,276.599 C570.825,242.981 556.603,211.272 533.359,186.798 L445.413,281.065 z M446.081,300.314 L540.347,388.26 C563.043,361.242 572.606,330.842 574.758,295.851 L446.081,300.314 z M426.866,139.248 L431.329,267.925 L519.275,173.658 C492.256,150.964 461.858,141.4 426.866,139.248 z M437.407,443.126 C471.024,439.81 502.734,425.588 527.208,402.344 L432.941,314.398 L437.407,443.126 z M320.318,178.269 L317.813,180.647 L412.08,268.593 L407.615,139.865 C374.635,143.016 345.018,156.531 320.318,178.269 z M325.746,409.332 C352.764,432.027 383.164,441.592 418.155,443.743 L413.692,315.066 L325.746,409.332 z M270.88,306.391 C274.197,340.009 288.418,371.72 311.662,396.193 L399.608,301.926 L270.88,306.391 z M270.264,287.14 L398.94,282.677 L304.674,194.731 C281.979,221.749 272.415,252.149 270.264,287.14 z" fill="#EAE9FF" fill-opacity="0.05"/>
    <path d="M547.996,491.271 C497.589,326.258 590.495,151.626 755.507,101.218 C920.52,50.811 1095.151,143.717 1145.56,308.729 C1195.967,473.742 1103.061,648.374 938.048,698.782 C773.037,749.189 598.404,656.283 547.996,491.271 L547.996,491.271 z M878.88,373.55 L1082.482,311.355 C1062.807,259.102 1026.536,214.563 978.959,185.434 L878.88,373.55 z M888.18,403.996 L1076.297,504.076 C1100.973,451.233 1103.237,398.61 1091.702,341.825 L888.18,403.996 z M788.603,155.076 L850.775,358.598 L950.854,170.481 C898.01,145.806 845.388,143.542 788.603,155.076 z M935.424,635.704 C987.675,616.029 1032.216,579.76 1061.344,532.181 L873.228,432.102 L935.424,635.704 z M635.192,262.951 L632.211,267.819 L820.328,367.899 L758.132,164.296 C706.829,183.435 665.326,217.681 635.192,262.951 z M742.702,629.519 C795.544,654.195 848.17,656.459 904.952,644.924 L842.781,441.402 L742.702,629.519 z M611.074,488.645 C630.749,540.897 667.018,585.439 714.596,614.566 L814.676,426.45 L611.074,488.645 z M601.853,458.175 L805.375,396.004 L617.259,295.924 C592.584,348.767 590.32,401.391 601.853,458.175 z" fill="#EAE9FF" fill-opacity="0.03"/>
    <path d="M-24.293,733.686 C-28.605,609.366 68.68,505.088 193,500.776 C317.32,496.464 421.596,593.749 425.909,718.069 C430.221,842.389 332.936,946.666 208.616,950.978 C84.297,955.291 -19.98,858.005 -24.293,733.686 z M20.727,732.124 C24.177,831.58 107.599,909.408 207.055,905.958 C306.511,902.508 384.339,819.087 380.889,719.631 C377.439,620.175 294.018,542.347 194.561,545.797 C95.106,549.247 17.277,632.668 20.727,732.124 z" fill="#EAE9FF" fill-opacity="0.07"/>
    <path d="M388.382,81.522 C385.795,6.931 444.166,-55.635 518.758,-58.223 C593.35,-60.81 655.916,-2.439 658.504,72.152 C661.091,146.745 602.72,209.311 528.128,211.898 C453.536,214.485 390.969,156.115 388.382,81.522 z M410.892,80.741 C413.049,142.902 465.187,191.544 527.347,189.388 C589.508,187.231 638.149,135.094 635.993,72.933 C633.837,10.773 581.699,-37.869 519.539,-35.713 C457.379,-33.557 408.736,18.582 410.892,80.741 z" fill="#EAE9FF" fill-opacity="0.101"/>
    <path d="M-49.39,12.823 C-51.977,-61.768 6.394,-124.334 80.986,-126.922 C155.578,-129.509 218.143,-71.138 220.731,3.453 C223.318,78.045 164.948,140.611 90.356,143.199 C15.764,145.786 -46.802,87.415 -49.39,12.823 z M-26.879,12.042 C-24.723,74.202 27.416,122.845 89.575,120.688 C151.735,118.532 200.378,66.394 198.221,4.234 C196.065,-57.926 143.927,-106.568 81.767,-104.412 C19.607,-102.256 -29.035,-50.117 -26.879,12.042 z" fill="#EAE9FF" fill-opacity="0.101"/>
    <path d="M-10.516,154.264 C-14.828,29.944 82.457,-74.332 206.776,-78.644 C331.097,-82.957 435.374,14.328 439.686,138.648 C443.999,262.967 346.713,367.244 222.393,371.557 C98.074,375.869 -6.204,278.584 -10.516,154.264 z M27.001,152.963 C30.595,256.563 117.492,337.634 221.091,334.04 C324.692,330.447 405.762,243.549 402.169,139.949 C398.575,36.35 311.678,-44.722 208.078,-41.128 C104.478,-37.534 23.408,49.363 27.001,152.963 z" fill="#EAE9FF" fill-opacity="0.101"/>
    <path d="M775.9,133.42 C771.587,9.101 868.872,-95.176 993.191,-99.489 C1117.513,-103.801 1221.789,-6.515 1226.101,117.804 C1230.414,242.124 1133.129,346.4 1008.808,350.713 C884.489,355.025 780.211,257.741 775.899,133.42 z M820.92,131.859 C824.37,231.316 907.791,309.143 1007.246,305.693 C1106.703,302.243 1184.53,218.823 1181.08,119.366 C1177.63,19.91 1094.21,-57.919 994.753,-54.469 C895.298,-51.019 817.47,32.403 820.92,131.859 z" fill="#EAE9FF" fill-opacity="0.101"/>
    <path d="M730.88,565.17 C725.705,415.987 842.447,290.854 991.63,285.68 C1140.815,280.505 1265.947,397.247 1271.122,546.43 C1276.297,695.613 1159.554,820.747 1010.37,825.922 C861.187,831.096 736.054,714.353 730.88,565.17 z M775.9,563.608 C780.212,687.929 884.488,785.214 1008.808,780.902 C1133.129,776.589 1230.413,672.312 1226.101,547.992 C1221.788,423.673 1117.512,326.387 993.192,330.699 C868.872,335.012 771.587,439.289 775.9,563.608 z" fill="#EAE9FF" fill-opacity="0.101"/>
    <path d="M986.401,182.298 C983.814,107.705 1042.186,45.139 1116.777,42.552 C1191.369,39.964 1253.935,98.336 1256.522,172.928 C1259.11,247.519 1200.739,310.085 1126.147,312.672 C1051.556,315.26 988.988,256.889 986.401,182.298 z M1008.911,181.517 C1011.068,243.676 1063.206,292.319 1125.366,290.163 C1187.526,288.007 1236.168,235.868 1234.012,173.708 C1231.856,111.548 1179.718,62.906 1117.558,65.062 C1055.398,67.218 1006.755,119.356 1008.911,181.517 z" fill="#EAE9FF" fill-opacity="0.04"/>
    <path d="M650.734,716.705 C648.147,642.114 706.518,579.547 781.11,576.959 C855.701,574.372 918.269,632.744 920.856,707.335 C923.443,781.927 865.071,844.493 790.48,847.081 C715.888,849.668 653.322,791.297 650.734,716.705 z M673.245,715.924 C675.401,778.085 727.539,826.727 789.699,824.57 C851.859,822.414 900.502,770.277 898.346,708.116 C896.189,645.956 844.051,597.314 781.891,599.47 C719.731,601.626 671.089,653.765 673.245,715.924 z" fill="#EAE9FF" fill-opacity="0.101"/>
    <path d="M161.193,733.686 C156.881,609.366 254.165,505.089 378.485,500.776 C502.804,496.464 607.082,593.749 611.394,718.07 C615.706,842.389 518.421,946.666 394.102,950.979 C269.782,955.291 165.505,858.005 161.193,733.686 z M206.214,732.124 C209.663,831.581 293.084,909.409 392.54,905.959 C491.996,902.509 569.824,819.087 566.374,719.631 C562.924,620.175 479.503,542.347 380.047,545.797 C280.591,549.247 202.763,632.668 206.214,732.124 z" fill="#EAE9FF" fill-opacity="0.052"/>
    <path d="M519.482,602.292 C516.895,527.7 575.265,465.134 649.857,462.547 C724.449,459.959 787.015,518.33 789.603,592.922 C792.19,667.514 733.819,730.081 659.227,732.668 C584.635,735.256 522.07,676.883 519.482,602.292 z M541.992,601.512 C544.148,663.671 596.286,712.314 658.446,710.158 C720.606,708.002 769.249,655.863 767.092,593.703 C764.936,531.543 712.798,482.901 650.638,485.057 C588.478,487.213 539.836,539.351 541.992,601.512 z" fill="#EAE9FF" fill-opacity="0.101"/>
    <path d="M10.805,435.721 C6.493,311.402 103.778,207.125 228.098,202.813 C352.418,198.5 456.695,295.786 461.007,420.105 C465.32,544.425 368.034,648.703 243.715,653.015 C119.395,657.327 15.117,560.042 10.805,435.721 z M48.322,434.42 C51.916,538.021 138.813,619.091 242.413,615.497 C346.013,611.904 427.084,525.007 423.491,421.406 C419.897,317.807 332.999,236.736 229.4,240.33 C125.799,243.924 44.729,330.82 48.322,434.42 z" fill="#EAE9FF" fill-opacity="0.101"/>
  </g>
  <g id="Layer_3" opacity="0.049">
    <path d="M179.926,565.171 C174.751,415.988 291.493,290.855 440.677,285.68 C589.861,280.505 714.993,397.248 720.168,546.431 C725.342,695.614 608.601,820.748 459.417,825.922 C310.233,831.097 185.1,714.354 179.926,565.171 z M224.946,563.609 C229.259,687.929 333.535,785.215 457.855,780.903 C582.175,776.59 679.46,672.313 675.148,547.993 C670.835,423.673 566.558,326.388 442.239,330.7 C317.919,335.013 220.634,439.29 224.946,563.609 z" fill="url(#Gradient_1)"/>
  </g>
  <g id="Layer_4" opacity="0.038">
    <path d="M139.915,35.717 C124.809,35.717 109.795,41.937 99.113,52.619 C92.384,59.349 87.43,67.798 84.683,76.906 C78.08,78.152 71.843,81.375 67.088,86.13 C60.891,92.328 57.283,101.036 57.283,109.801 C57.283,118.567 60.891,127.278 67.088,133.476 C73.286,139.674 81.998,143.282 90.763,143.282 L240.712,143.282 C246.307,143.282 251.868,140.98 255.824,137.024 C259.781,133.068 262.083,127.506 262.083,121.911 C262.083,116.317 259.781,110.758 255.824,106.802 C251.893,102.87 246.375,100.575 240.815,100.546 C239.73,90.41 235.138,80.653 227.923,73.438 C219.615,65.131 207.939,60.293 196.19,60.293 C193.338,60.293 190.492,60.586 187.695,61.136 C185.648,58.082 183.318,55.22 180.716,52.619 C170.035,41.937 155.021,35.717 139.915,35.717 z" fill-opacity="0" stroke="#FFFFFF" stroke-width="7" stroke-opacity="0.199" id="path10000"/>
    <path d="M146.937,361.602 C137.196,361.602 127.516,365.351 120.628,371.79 C116.289,375.847 113.095,380.94 111.324,386.43 C107.066,387.181 103.045,389.124 99.979,391.99 C95.983,395.726 93.656,400.976 93.656,406.26 C93.656,411.543 95.983,416.794 99.979,420.531 C103.975,424.267 109.592,426.441 115.244,426.441 L211.929,426.441 C215.537,426.441 219.123,425.054 221.674,422.669 C224.225,420.284 225.709,416.932 225.709,413.559 C225.709,410.187 224.225,406.836 221.674,404.451 C219.139,402.081 215.581,400.698 211.996,400.681 C211.296,394.57 208.335,388.689 203.683,384.34 C198.327,379.332 190.798,376.416 183.222,376.416 C181.383,376.416 179.548,376.592 177.745,376.924 C176.425,375.083 174.922,373.358 173.245,371.79 C166.358,365.351 156.677,361.602 146.937,361.602 z" fill-opacity="0" stroke="#FFFFFF" stroke-width="7" stroke-opacity="0.18" id="path10000"/>
    <path d="M653.675,35.717 C642.913,35.717 632.216,40.335 624.606,48.264 C619.812,53.26 616.282,59.532 614.325,66.294 C609.621,67.219 605.178,69.611 601.79,73.141 C597.374,77.742 594.804,84.207 594.804,90.714 C594.804,97.221 597.374,103.688 601.79,108.289 C606.206,112.89 612.412,115.569 618.657,115.569 L725.488,115.569 C729.474,115.569 733.436,113.86 736.255,110.923 C739.073,107.986 740.713,103.857 740.713,99.704 C740.713,95.551 739.073,91.424 736.255,88.487 C733.453,85.569 729.522,83.865 725.561,83.844 C724.788,76.319 721.516,69.076 716.376,63.72 C710.458,57.553 702.139,53.961 693.768,53.961 C691.736,53.961 689.708,54.179 687.716,54.587 C686.258,52.32 684.597,50.196 682.744,48.264 C675.134,40.335 664.437,35.717 653.675,35.717 z" fill-opacity="0" stroke="#FFFFFF" stroke-width="7" stroke-opacity="0.177" id="path10000"/>
    <path d="M974.219,435.798 C964.479,435.798 954.798,439.548 947.911,445.986 C943.572,450.043 940.378,455.136 938.606,460.626 C934.349,461.378 930.328,463.32 927.261,466.187 C923.265,469.923 920.939,475.172 920.939,480.456 C920.939,485.74 923.265,490.991 927.261,494.727 C931.258,498.463 936.875,500.638 942.526,500.638 L1039.212,500.638 C1042.82,500.638 1046.406,499.25 1048.956,496.866 C1051.507,494.481 1052.992,491.129 1052.992,487.756 C1052.992,484.383 1051.507,481.033 1048.956,478.648 C1046.421,476.278 1042.863,474.894 1039.278,474.877 C1038.579,468.767 1035.618,462.885 1030.966,458.536 C1025.609,453.529 1018.081,450.613 1010.505,450.613 C1008.666,450.613 1006.831,450.789 1005.027,451.121 C1003.708,449.28 1002.205,447.555 1000.527,445.986 C993.64,439.548 983.959,435.798 974.219,435.798 z" fill-opacity="0" stroke="#FFFFFF" stroke-width="6" stroke-opacity="0.152" id="path10000"/>
    <path d="M968.646,115.569 C954.648,115.569 940.734,121.588 930.836,131.926 C924.599,138.439 920.009,146.616 917.463,155.43 C911.344,156.637 905.565,159.756 901.158,164.358 C895.414,170.356 892.071,178.784 892.071,187.267 C892.071,195.75 895.414,204.181 901.158,210.179 C906.902,216.177 914.974,219.669 923.097,219.669 L1062.055,219.669 C1067.24,219.669 1072.394,217.441 1076.06,213.612 C1079.726,209.784 1081.859,204.401 1081.859,198.987 C1081.859,193.572 1079.726,188.193 1076.06,184.364 C1072.417,180.559 1067.303,178.337 1062.151,178.31 C1061.145,168.5 1056.89,159.057 1050.204,152.075 C1042.505,144.035 1031.685,139.353 1020.797,139.353 C1018.154,139.353 1015.516,139.636 1012.924,140.169 C1011.028,137.213 1008.868,134.443 1006.457,131.926 C996.559,121.588 982.645,115.569 968.646,115.569 z" fill-opacity="0" stroke="#FFFFFF" stroke-width="7" stroke-opacity="0.169" id="path10000"/>
    <path d="M696.422,300.258 C685.66,300.258 674.963,304.876 667.353,312.805 C662.559,317.801 659.03,324.073 657.072,330.835 C652.368,331.76 647.925,334.152 644.537,337.682 C640.122,342.283 637.551,348.748 637.551,355.255 C637.551,361.762 640.122,368.229 644.537,372.83 C648.953,377.431 655.159,380.109 661.404,380.109 L768.235,380.109 C772.221,380.109 776.183,378.4 779.002,375.464 C781.82,372.527 783.46,368.398 783.46,364.245 C783.46,360.092 781.82,355.965 779.002,353.028 C776.201,350.109 772.27,348.405 768.308,348.385 C767.535,340.859 764.264,333.616 759.124,328.261 C753.205,322.093 744.886,318.502 736.516,318.502 C734.483,318.502 732.456,318.719 730.463,319.128 C729.005,316.861 727.345,314.736 725.491,312.805 C717.881,304.876 707.185,300.258 696.422,300.258 z" fill-opacity="0" stroke="#FFFFFF" stroke-width="7" stroke-opacity="0.13" id="path10000"/>
    <path d="M200.502,661.685 C189.739,661.685 179.043,666.302 171.433,674.232 C166.638,679.228 163.109,685.5 161.152,692.261 C156.447,693.187 152.004,695.579 148.616,699.109 C144.201,703.71 141.63,710.175 141.63,716.682 C141.63,723.189 144.201,729.656 148.616,734.257 C153.032,738.858 159.239,741.536 165.483,741.536 L272.314,741.536 C276.3,741.536 280.263,739.827 283.081,736.891 C285.9,733.954 287.54,729.825 287.54,725.672 C287.54,721.518 285.9,717.392 283.081,714.455 C280.28,711.536 276.349,709.832 272.388,709.811 C271.615,702.286 268.343,695.043 263.203,689.688 C257.284,683.52 248.965,679.929 240.595,679.929 C238.563,679.929 236.535,680.146 234.542,680.555 C233.084,678.288 231.424,676.163 229.57,674.232 C221.96,666.302 211.264,661.685 200.502,661.685 z" fill-opacity="0" stroke="#161824" stroke-width="7" id="path10000"/>
  </g>
</svg>
