<?xml version="1.0" encoding="UTF-8"?>
<!DOCTYPE svg PUBLIC "-//W3C//DTD SVG 1.1//EN" "http://www.w3.org/Graphics/SVG/1.1/DTD/svg11.dtd">
<svg version="1.1" xmlns="http://www.w3.org/2000/svg" xmlns:xlink="http://www.w3.org/1999/xlink" x="0" y="0" width="64" height="64" viewBox="0, 0, 64, 64">
  <g id="Layer_1" opacity="0.298">
    <g>
      <path d="M17.948,17.92 C18.752,17.92 19.372,17.713 19.829,17.414 L19.829,16.643 C19.402,16.885 18.894,17.149 18.05,17.149 C16.484,17.149 15.833,15.998 15.833,14.019 L15.833,13.639 C15.833,11.591 16.749,10.717 18.04,10.717 C18.711,10.717 19.219,10.889 19.758,11.131 L19.758,10.371 C19.341,10.118 18.813,9.946 18.081,9.946 C16.342,9.946 14.98,11.027 14.98,13.789 L14.98,14.019 C14.98,16.631 16.108,17.92 17.948,17.92 z" fill="#409CF1"/>
      <path d="M22.249,17.897 C22.931,17.897 23.357,17.621 23.591,17.299 L23.642,17.299 L23.724,17.794 L24.354,17.794 L24.354,13.662 C24.354,12.5 23.734,11.982 22.626,11.982 C22.046,11.982 21.558,12.086 21.121,12.293 L21.121,12.926 C21.436,12.822 21.832,12.742 22.32,12.742 C23.225,12.742 23.571,12.972 23.571,13.858 L23.571,14.456 L22.209,14.641 C21.243,14.767 20.673,15.296 20.673,16.298 C20.673,17.368 21.334,17.897 22.249,17.897 z M22.442,17.207 C21.863,17.207 21.487,16.896 21.487,16.275 C21.487,15.619 21.792,15.331 22.412,15.262 L23.571,15.112 L23.571,16.792 C23.357,17.034 22.91,17.207 22.442,17.207 z" fill="#409CF1"/>
      <path d="M25.818,17.794 L26.591,17.794 L26.591,13.156 C27.008,12.937 27.536,12.742 28.014,12.742 C28.818,12.742 29.031,13.029 29.031,13.72 L29.031,17.794 L29.804,17.794 L29.804,13.536 C29.804,12.431 29.326,11.982 28.34,11.982 C27.719,11.982 27.069,12.236 26.601,12.581 L26.56,12.581 L26.56,12.086 L25.818,12.086 z" fill="#409CF1"/>
      <path d="M31.197,11.798 L31.878,11.798 L31.959,9.796 L31.105,9.796 z" fill="#409CF1"/>
      <path d="M34.928,17.863 C35.365,17.863 35.579,17.736 35.782,17.632 L35.782,17.034 C35.579,17.103 35.345,17.138 35.132,17.138 C34.552,17.138 34.389,16.919 34.389,16.367 L34.389,12.822 L35.681,12.822 L35.681,12.097 L34.389,12.097 L34.389,10.739 L33.617,10.739 L33.617,12.097 L32.895,12.097 L32.895,12.822 L33.617,12.822 L33.617,16.505 C33.617,17.471 34.135,17.863 34.928,17.863 z" fill="#409CF1"/>
      <path d="M41.405,17.92 C43.032,17.92 43.916,16.838 43.916,14.928 L43.916,14.779 C43.916,12.638 42.92,11.982 41.954,11.982 C41.263,11.982 40.785,12.201 40.398,12.466 L40.347,12.466 L40.347,9.554 L39.565,9.554 L39.565,17.609 C40.012,17.805 40.815,17.92 41.405,17.92 z M41.446,17.184 C40.937,17.184 40.581,17.092 40.347,16.977 L40.347,13.099 C40.612,12.96 41.08,12.73 41.598,12.73 C42.615,12.73 43.103,13.248 43.103,14.836 L43.103,15.066 C43.103,16.7 42.35,17.184 41.446,17.184 z" fill="#409CF1"/>
      <path d="M47.18,17.897 C47.993,17.897 48.573,17.609 48.878,17.368 L48.878,16.712 C48.421,16.954 47.973,17.138 47.302,17.138 C46.225,17.138 45.625,16.585 45.584,15.158 L49.02,15.158 L49.02,14.664 C49.02,12.891 48.37,11.982 46.987,11.982 C45.828,11.982 44.791,12.868 44.791,14.859 L44.791,15.02 C44.791,16.804 45.594,17.897 47.18,17.897 z M46.967,12.696 C47.79,12.696 48.207,13.214 48.207,14.456 L45.584,14.456 C45.665,13.11 46.336,12.696 46.967,12.696 z" fill="#409CF1"/>
    </g>
    <g>
      <path d="M14.599,30.471 C15.707,30.471 16.378,29.873 16.378,28.791 C16.378,27.802 15.982,27.433 15.016,27.146 L14.507,26.984 C13.969,26.812 13.755,26.605 13.755,26.11 C13.755,25.581 14.091,25.316 14.772,25.316 C15.331,25.316 15.839,25.466 16.104,25.615 L16.104,24.902 C15.839,24.74 15.402,24.568 14.731,24.568 C13.572,24.568 13.013,25.224 13.013,26.191 C13.013,27.157 13.511,27.537 14.243,27.767 L14.741,27.917 C15.382,28.124 15.616,28.354 15.616,28.883 C15.616,29.401 15.29,29.723 14.487,29.723 C13.775,29.723 13.409,29.551 12.972,29.367 L12.972,30.068 C13.389,30.333 13.938,30.471 14.599,30.471 z" fill="#409CF1"/>
      <path d="M17.537,30.379 L18.31,30.379 L18.31,25.753 C18.727,25.523 19.256,25.327 19.734,25.327 C20.537,25.327 20.75,25.615 20.75,26.305 L20.75,30.379 L21.523,30.379 L21.523,26.133 C21.523,25.028 21.045,24.568 20.059,24.568 C19.439,24.568 18.798,24.81 18.361,25.166 L18.31,25.166 L18.31,22.14 L17.537,22.14 z" fill="#409CF1"/>
      <path d="M24.949,30.483 C26.312,30.483 27.247,29.401 27.247,27.583 L27.247,27.422 C27.247,25.615 26.383,24.568 24.96,24.568 C23.597,24.568 22.672,25.65 22.672,27.456 L22.672,27.629 C22.672,29.447 23.526,30.483 24.949,30.483 z M24.97,29.758 C24.126,29.758 23.465,29.24 23.465,27.652 L23.465,27.364 C23.465,26.029 24.034,25.293 24.949,25.293 C25.773,25.293 26.454,25.811 26.454,27.399 L26.454,27.686 C26.454,29.033 25.885,29.758 24.97,29.758 z" fill="#409CF1"/>
      <path d="M29.393,30.379 L30.186,30.379 L31.375,26.029 L31.406,26.029 L32.575,30.379 L33.358,30.379 L34.792,24.672 L34.049,24.672 L33.012,29.24 L32.972,29.24 L31.752,24.672 L31.081,24.672 L29.871,29.24 L29.83,29.24 L28.793,24.672 L27.959,24.672 z" fill="#409CF1"/>
      <path d="M40.123,30.448 C40.544,30.448 40.75,30.322 40.946,30.218 L40.946,29.62 C40.75,29.689 40.525,29.723 40.319,29.723 C39.761,29.723 39.604,29.505 39.604,28.952 L39.604,25.408 L40.848,25.408 L40.848,24.683 L39.604,24.683 L39.604,23.325 L38.861,23.325 L38.861,24.683 L38.165,24.683 L38.165,25.408 L38.861,25.408 L38.861,29.09 C38.861,30.057 39.36,30.448 40.123,30.448 z" fill="#409CF1"/>
      <path d="M42.012,30.379 L42.756,30.379 L42.756,25.753 C43.158,25.523 43.667,25.327 44.127,25.327 C44.9,25.327 45.106,25.615 45.106,26.305 L45.106,30.379 L45.85,30.379 L45.85,26.133 C45.85,25.028 45.39,24.568 44.44,24.568 C43.843,24.568 43.226,24.81 42.805,25.166 L42.756,25.166 L42.756,22.14 L42.012,22.14 z" fill="#409CF1"/>
      <path d="M49.256,30.483 C50.039,30.483 50.597,30.195 50.891,29.953 L50.891,29.298 C50.45,29.539 50.02,29.723 49.374,29.723 C48.336,29.723 47.758,29.171 47.719,27.744 L51.028,27.744 L51.028,27.249 C51.028,25.477 50.401,24.568 49.07,24.568 C47.954,24.568 46.956,25.454 46.956,27.445 L46.956,27.606 C46.956,29.389 47.729,30.483 49.256,30.483 z M49.05,25.281 C49.843,25.281 50.245,25.799 50.245,27.042 L47.719,27.042 C47.798,25.696 48.444,25.281 49.05,25.281 z" fill="#409CF1"/>
    </g>
    <g>
      <path d="M7.9,42.942 L8.674,42.942 L8.674,35.22 L7.9,35.22 z" fill="#409CF1"/>
      <path d="M12.893,43.068 C13.666,43.068 14.263,42.861 14.704,42.562 L14.704,41.791 C14.292,42.033 13.803,42.297 12.99,42.297 C11.483,42.297 10.857,41.146 10.857,39.167 L10.857,38.788 C10.857,36.739 11.738,35.865 12.981,35.865 C13.627,35.865 14.116,36.037 14.635,36.279 L14.635,35.519 C14.234,35.266 13.725,35.094 13.02,35.094 C11.346,35.094 10.035,36.175 10.035,38.937 L10.035,39.167 C10.035,41.779 11.121,43.068 12.893,43.068 z" fill="#409CF1"/>
      <path d="M18.472,43.068 C20.273,43.068 21.36,41.607 21.36,39.179 L21.36,38.995 C21.36,36.463 20.273,35.094 18.501,35.094 C16.691,35.094 15.604,36.555 15.604,38.983 L15.604,39.167 C15.604,41.699 16.691,43.068 18.472,43.068 z M18.492,42.32 C17.023,42.32 16.436,41.032 16.436,39.167 L16.436,38.811 C16.436,37.084 17.112,35.842 18.462,35.842 C19.95,35.853 20.528,37.119 20.528,38.995 L20.528,39.351 C20.528,41.066 19.852,42.32 18.492,42.32 z" fill="#409CF1"/>
      <path d="M22.672,42.942 L23.396,42.942 L23.396,36.463 L23.425,36.463 L26.685,42.942 L27.487,42.942 L27.487,35.22 L26.783,35.22 L26.783,41.4 L26.753,41.4 L23.592,35.22 L22.672,35.22 z" fill="#409CF1"/>
      <path d="M32.822,43.045 C33.478,43.045 33.889,42.769 34.114,42.447 L34.163,42.447 L34.242,42.942 L34.849,42.942 L34.849,38.811 C34.849,37.648 34.251,37.13 33.185,37.13 C32.627,37.13 32.157,37.234 31.736,37.441 L31.736,38.074 C32.039,37.971 32.421,37.89 32.891,37.89 C33.762,37.89 34.095,38.12 34.095,39.006 L34.095,39.604 L32.783,39.789 C31.853,39.915 31.305,40.445 31.305,41.446 C31.305,42.516 31.941,43.045 32.822,43.045 z M33.008,42.355 C32.45,42.355 32.088,42.044 32.088,41.423 C32.088,40.767 32.382,40.479 32.979,40.41 L34.095,40.26 L34.095,41.941 C33.889,42.182 33.459,42.355 33.008,42.355 z" fill="#409CF1"/>
      <path d="M37.795,43.011 C38.216,43.011 38.421,42.884 38.617,42.781 L38.617,42.182 C38.421,42.251 38.196,42.286 37.991,42.286 C37.433,42.286 37.276,42.067 37.276,41.515 L37.276,37.971 L38.519,37.971 L38.519,37.246 L37.276,37.246 L37.276,35.888 L36.532,35.888 L36.532,37.246 L35.837,37.246 L35.837,37.971 L36.532,37.971 L36.532,41.653 C36.532,42.62 37.032,43.011 37.795,43.011 z" fill="#409CF1"/>
      <path d="M43.795,43.011 C44.216,43.011 44.422,42.884 44.618,42.781 L44.618,42.182 C44.422,42.251 44.197,42.286 43.991,42.286 C43.433,42.286 43.277,42.067 43.277,41.515 L43.277,37.971 L44.52,37.971 L44.52,37.246 L43.277,37.246 L43.277,35.888 L42.533,35.888 L42.533,37.246 L41.838,37.246 L41.838,37.971 L42.533,37.971 L42.533,41.653 C42.533,42.62 43.032,43.011 43.795,43.011 z" fill="#409CF1"/>
      <path d="M45.685,42.942 L46.428,42.942 L46.428,38.316 C46.83,38.086 47.339,37.89 47.799,37.89 C48.572,37.89 48.778,38.178 48.778,38.868 L48.778,42.942 L49.522,42.942 L49.522,38.695 C49.522,37.591 49.062,37.13 48.112,37.13 C47.515,37.13 46.898,37.372 46.477,37.729 L46.428,37.729 L46.428,34.702 L45.685,34.702 z" fill="#409CF1"/>
      <path d="M50.961,42.942 L51.705,42.942 L51.705,37.246 L50.961,37.246 z M50.951,36.095 L51.714,36.095 L51.714,35.174 L50.951,35.174 z" fill="#409CF1"/>
      <path d="M54.387,43.034 C55.454,43.034 56.1,42.435 56.1,41.354 C56.1,40.364 55.718,39.996 54.788,39.708 L54.299,39.547 C53.78,39.374 53.574,39.167 53.574,38.672 C53.574,38.143 53.897,37.879 54.553,37.879 C55.092,37.879 55.581,38.028 55.835,38.178 L55.835,37.464 C55.581,37.303 55.16,37.13 54.514,37.13 C53.398,37.13 52.86,37.786 52.86,38.753 C52.86,39.72 53.339,40.099 54.044,40.33 L54.524,40.479 C55.14,40.686 55.365,40.916 55.365,41.446 C55.365,41.964 55.052,42.286 54.279,42.286 C53.594,42.286 53.241,42.113 52.82,41.929 L52.82,42.631 C53.222,42.896 53.75,43.034 54.387,43.034 z" fill="#409CF1"/>
    </g>
    <g>
      <path d="M15.949,54.342 L16.663,54.342 L16.663,49.705 C17.039,49.486 17.452,49.29 17.846,49.29 C18.467,49.29 18.692,49.578 18.692,50.269 L18.692,54.342 L19.406,54.342 L19.406,50.084 C19.406,49.946 19.397,49.843 19.378,49.705 C19.819,49.463 20.214,49.29 20.58,49.29 C21.21,49.29 21.435,49.578 21.435,50.269 L21.435,54.342 L22.14,54.342 L22.14,50.084 C22.14,48.98 21.67,48.531 20.862,48.531 C20.336,48.531 19.791,48.761 19.284,49.164 L19.246,49.164 C19.03,48.738 18.654,48.531 18.128,48.531 C17.602,48.531 17.104,48.796 16.672,49.129 L16.634,49.129 L16.634,48.634 L15.949,48.634 z" fill="#409CF1"/>
      <path d="M25.306,54.446 C26.565,54.446 27.429,53.364 27.429,51.546 L27.429,51.385 C27.429,49.578 26.631,48.531 25.315,48.531 C24.057,48.531 23.202,49.613 23.202,51.419 L23.202,51.592 C23.202,53.41 23.991,54.446 25.306,54.446 z M25.325,53.721 C24.545,53.721 23.934,53.203 23.934,51.615 L23.934,51.327 C23.934,49.992 24.46,49.256 25.306,49.256 C26.067,49.256 26.697,49.774 26.697,51.362 L26.697,51.649 C26.697,52.996 26.171,53.721 25.325,53.721 z" fill="#409CF1"/>
      <path d="M28.51,54.342 L29.224,54.342 L29.224,49.705 C29.6,49.486 30.013,49.29 30.408,49.29 C31.028,49.29 31.253,49.578 31.253,50.269 L31.253,54.342 L31.967,54.342 L31.967,50.084 C31.967,49.946 31.958,49.843 31.939,49.705 C32.38,49.463 32.775,49.29 33.141,49.29 C33.771,49.29 33.996,49.578 33.996,50.269 L33.996,54.342 L34.701,54.342 L34.701,50.084 C34.701,48.98 34.231,48.531 33.423,48.531 C32.897,48.531 32.352,48.761 31.845,49.164 L31.807,49.164 C31.591,48.738 31.215,48.531 30.689,48.531 C30.163,48.531 29.665,48.796 29.233,49.129 L29.196,49.129 L29.196,48.634 L28.51,48.634 z" fill="#409CF1"/>
      <path d="M37.97,54.446 C38.722,54.446 39.257,54.158 39.539,53.916 L39.539,53.26 C39.117,53.502 38.703,53.686 38.083,53.686 C37.087,53.686 36.533,53.134 36.495,51.707 L39.671,51.707 L39.671,51.212 C39.671,49.44 39.07,48.531 37.792,48.531 C36.721,48.531 35.763,49.417 35.763,51.408 L35.763,51.569 C35.763,53.352 36.505,54.446 37.97,54.446 z M37.773,49.244 C38.534,49.244 38.919,49.762 38.919,51.005 L36.495,51.005 C36.57,49.659 37.191,49.244 37.773,49.244 z" fill="#409CF1"/>
      <path d="M40.751,54.342 L41.465,54.342 L41.465,49.705 C41.85,49.486 42.339,49.29 42.781,49.29 C43.523,49.29 43.72,49.578 43.72,50.269 L43.72,54.342 L44.434,54.342 L44.434,50.084 C44.434,48.98 43.993,48.531 43.081,48.531 C42.508,48.531 41.907,48.784 41.475,49.129 L41.437,49.129 L41.437,48.634 L40.751,48.634 z" fill="#409CF1"/>
      <path d="M47.262,54.411 C47.666,54.411 47.863,54.285 48.051,54.181 L48.051,53.583 C47.863,53.652 47.647,53.686 47.45,53.686 C46.914,53.686 46.764,53.468 46.764,52.915 L46.764,49.371 L47.957,49.371 L47.957,48.646 L46.764,48.646 L46.764,47.288 L46.05,47.288 L46.05,48.646 L45.383,48.646 L45.383,49.371 L46.05,49.371 L46.05,53.053 C46.05,54.02 46.529,54.411 47.262,54.411 z" fill="#409CF1"/>
    </g>
  </g>
</svg>
